<?xml version="1.0" encoding="UTF-8" standalone="no"?>
<svg
   xmlns:dc="http://purl.org/dc/elements/1.1/"
   xmlns:cc="http://creativecommons.org/ns#"
   xmlns:rdf="http://www.w3.org/1999/02/22-rdf-syntax-ns#"
   xmlns:svg="http://www.w3.org/2000/svg"
   xmlns="http://www.w3.org/2000/svg"
   xmlns:sodipodi="http://sodipodi.sourceforge.net/DTD/sodipodi-0.dtd"
   xmlns:inkscape="http://www.inkscape.org/namespaces/inkscape"
   id="svg2"
   viewBox="0 0 4024.9453 2125.3086"
   version="1.1"
   sodipodi:docname="mexican-sombrero.svg"
   width="4024.9453"
   height="2125.3086"
   inkscape:version="0.92.1 r15371">
  <defs
     id="defs4606" />
  <sodipodi:namedview
     pagecolor="#ffffff"
     bordercolor="#666666"
     borderopacity="1"
     objecttolerance="10"
     gridtolerance="10"
     guidetolerance="10"
     inkscape:pageopacity="0"
     inkscape:pageshadow="2"
     inkscape:window-width="1366"
     inkscape:window-height="705"
     id="namedview4604"
     showgrid="false"
     inkscape:snap-global="false"
     fit-margin-top="0"
     fit-margin-left="0"
     fit-margin-right="0"
     fit-margin-bottom="0"
     inkscape:zoom="0.073868665"
     inkscape:cx="1217.7097"
     inkscape:cy="923.59283"
     inkscape:window-x="-8"
     inkscape:window-y="-8"
     inkscape:window-maximized="1"
     inkscape:current-layer="svg2" />
  <g
     id="g4687">
    <path
       d="m 1771.5352,1081.9793 c 42.375,-3.5859 82.875,4.5469 123.42,24.188 79.922,38.672 139.45,122.51 164.79,231.8 17.203,85.758 11.25,207.26 4.4063,227.79 -9.1875,69.914 -48.984,170.2 -93.398,235.48 -60.562,89.039 -145.59,152.84 -226.66,169.92 -72.328,15.258 -140.2,0.3281 -198.49,-43.57 -87.75,-66.117 -136.2,-184.27 -136.24,-331.43 -0.023,-238.97 139.5,-460.57 318.98,-506.46 14.648,-3.75 29.086,-6.4922 43.195,-7.7109 z"
       id="path13"
       inkscape:connector-curvature="0"
       style="fill:#ffffff" />
    <path
       d="m 1843.7352,1546.0393 c 0,44.25 -32.953,80.109 -73.57,80.109 -40.641,0 -73.594,-35.859 -73.594,-80.109 0,-44.25 32.953,-80.109 73.594,-80.109 40.617,0 73.57,35.859 73.57,80.109 z"
       id="path29"
       inkscape:connector-curvature="0"
       style="fill:#ffffff" />
    <path
       d="m 2598.5352,1546.0393 c 0,44.25 -32.93,80.109 -73.57,80.109 -40.617,0 -73.57,-35.859 -73.57,-80.109 0,-44.25 32.953,-80.109 73.57,-80.109 40.641,0 73.57,35.859 73.57,80.109 z"
       id="path33"
       inkscape:connector-curvature="0"
       style="fill:#ffffff" />
    <g
       transform="matrix(1.0420814,0.12608175,-0.11688816,1.1240441,591.63627,-174.64717)"
       id="g4610">
      <path
         id="path35"
         d="m 1029.8481,729.84734 c -466.45995,0.69091 -892.21643,42.31866 -1222.82531,87.60655 -330.60887,45.28785 -299.06717,699.00541 -17.47885,739.33731 281.588314,40.3318 1002.51746,204.1602 1619.20016,225.44 718.9936,24.8727 1521.2315,-42.7163 1805.6163,-116.4863 284.3849,-73.7699 311.7445,-629.551 0,-691.17946 -311.7445,-61.6287 -1076.6278,-213.48926 -1790.0789,-238.22361 -134.2945,-4.55995 -266.0449,-6.77084 -394.4334,-6.49449 z"
         inkscape:connector-curvature="0"
         style="fill:#c77035;stroke-width:1.12050939"
         sodipodi:nodetypes="czzczzcc" />
      <path
         id="path37"
         d="m 1126.8891,857.94074 c -553.35163,-0.9673 -1173.714236,80.6975 -1319.86631,117.8683 -146.15207,37.17046 -175.16441,337.92056 0,394.36736 175.164424,56.447 962.1413,200.7766 1658.78281,224.9582 756.5198,26.1162 1581.6862,-81.872 1748.5548,-133.897 166.8687,-52.025 165.9147,-281.4741 0,-344.4844 -165.9146,-63.0104 -985.0386,-226.47816 -1737.6513,-252.45616 -119.3931,-4.1454 -236.2421,-6.2181 -349.82,-6.3563 z"
         inkscape:connector-curvature="0"
         style="fill:#9e592b;stroke-width:1.12050939"
         sodipodi:nodetypes="czzczzcc" />
    </g>
    <g
       transform="rotate(5.1,2058.7631,714.17277)"
       id="g4665">
      <path
         id="path39"
         d="m 1504.4952,184.03926 c -232.136,269.216 -387.424,691.488 -399.264,1169.04004 l 967.68,20.16 967.44,26.24 c 0.08,-2 0.16,-4.08 0.16,-6.08 12.24,-492.00804 -23.6171,-957.9989 -360.96,-1209.36004 -314.0781,-234.026056 -860.3066,-256.488416 -1175.04,0 -0.01,0.003 -0.016,0 -0.016,0 z"
         inkscape:connector-curvature="0"
         style="fill:#c77035;stroke-width:0.80000001"
         sodipodi:nodetypes="cccccasc" />
      <path
         id="path41"
         d="m 2219.5352,184.03926 c -52.3401,147.13106 -15.76,784.072 -15.76,784.072 246.16,34.48804 471.36,16.488 693.68,-8.4 -63.2,-333.416 -257.08,-691.744 -332.88,-775.672 -75.8,-83.928 -292.6999,-147.131056 -345.04,0 z"
         inkscape:connector-curvature="0"
         style="fill:#d18c5e;stroke-width:0.80000001"
         sodipodi:nodetypes="zcczz" />
      <path
         style="fill:#d18c5e"
         inkscape:connector-curvature="0"
         id="path43"
         d="m 2168.2352,1346.5393 750.33,22.008 c 0.047,-1.7344 0.07,-3.2344 0.094,-4.9453 1.0781,-46.758 1.5469,-50.297 -0.3516,-95.789 -224.55,8.7422 -465.82,14.133 -750.33,10.898 0.4453,6.2812 1.6172,7.3828 0.2578,67.828 z" />
      <path
         style="fill:#ff0000"
         inkscape:connector-curvature="0"
         id="path83"
         d="m 1152.5852,1023.0793 c 627.94,28.477 1248.5,36.023 1852.4,-3.1875 l 36.141,194.27 c -638.93,40.336 -1273.8,31.547 -1924.7,4.5234 z" />
      <path
         style="fill:#007f00"
         inkscape:connector-curvature="0"
         id="path123"
         d="m 1374.3552,1022.6293 -234.94,-0.1407 117.35,203.5101 z" />
      <path
         style="fill:#007f00"
         inkscape:connector-curvature="0"
         id="path125"
         d="m 1595.7352,1027.1593 -234.94,-0.1641 117.33,203.53 z" />
      <path
         style="fill:#007f00"
         inkscape:connector-curvature="0"
         id="path127"
         d="m 1826.1352,1031.6593 -234.94,-0.1407 117.35,203.5301 z" />
      <path
         style="fill:#007f00"
         inkscape:connector-curvature="0"
         id="path129"
         d="m 2052.0352,1031.6593 -234.91,-0.1407 117.33,203.5301 z" />
      <path
         style="fill:#007f00"
         inkscape:connector-curvature="0"
         id="path131"
         d="m 2282.4352,1031.6593 -234.94,-0.1407 117.35,203.5301 z" />
      <path
         style="fill:#007f00"
         inkscape:connector-curvature="0"
         id="path133"
         d="m 2512.9352,1031.6593 -234.94,-0.1407 117.35,203.5301 z" />
      <path
         style="fill:#007f00"
         inkscape:connector-curvature="0"
         id="path135"
         d="m 2738.8352,1031.6593 -234.94,-0.1407 117.35,203.5301 z" />
      <path
         style="fill:#007f00"
         inkscape:connector-curvature="0"
         id="path137"
         d="m 2973.7352,1027.1593 -234.94,-0.1641 117.35,203.53 z" />
      <path
         style="fill:#007f00"
         inkscape:connector-curvature="0"
         id="path139"
         d="m 3025.7352,1018.9993 -76.43,7.4297 96.188,195.07 z" />
    </g>
  </g>
  <metadata
     id="metadata4601">
    <rdf:RDF>
      <cc:Work>
        <dc:format>image/svg+xml</dc:format>
        <dc:type
           rdf:resource="http://purl.org/dc/dcmitype/StillImage" />
        <cc:license
           rdf:resource="http://creativecommons.org/publicdomain/zero/1.0/" />
        <dc:publisher>
          <cc:Agent
             rdf:about="http://openclipart.org/">
            <dc:title>Openclipart</dc:title>
          </cc:Agent>
        </dc:publisher>
        <dc:title>mexican penguin</dc:title>
        <dc:date>2013-05-23T02:03:02</dc:date>
        <dc:description>A penguin in an outfit reminds us of tux from Linux fame.</dc:description>
        <dc:source>https://openclipart.org/detail/178486/mexican-by-bartm-178486</dc:source>
        <dc:creator>
          <cc:Agent>
            <dc:title>BartM</dc:title>
          </cc:Agent>
        </dc:creator>
        <dc:subject>
          <rdf:Bag>
            <rdf:li>animal</rdf:li>
            <rdf:li>color</rdf:li>
            <rdf:li>linux</rdf:li>
            <rdf:li>mexican</rdf:li>
            <rdf:li>penguin</rdf:li>
            <rdf:li>pet</rdf:li>
            <rdf:li>tux</rdf:li>
          </rdf:Bag>
        </dc:subject>
      </cc:Work>
      <cc:License
         rdf:about="http://creativecommons.org/publicdomain/zero/1.0/">
        <cc:permits
           rdf:resource="http://creativecommons.org/ns#Reproduction" />
        <cc:permits
           rdf:resource="http://creativecommons.org/ns#Distribution" />
        <cc:permits
           rdf:resource="http://creativecommons.org/ns#DerivativeWorks" />
      </cc:License>
    </rdf:RDF>
  </metadata>
</svg>
